<svg width="239" height="55" viewBox="0 0 239 55" fill="none" xmlns="http://www.w3.org/2000/svg">
<path d="M38.4178 45.4214H1.87878V18.6772L2.90222 18.1548L19.2938 9.78464L20.1483 9.34811L21.0018 9.78464L37.3934 18.1548L38.4178 18.6772V45.4214Z" fill="#F5F7FF" stroke="#0F172A" stroke-width="3.75672"/>
<path d="M74.366 45.4214H37.8269V18.6772L38.8503 18.1548L55.2419 9.78464L56.0964 9.34811L56.95 9.78464L73.3416 18.1548L74.366 18.6772V45.4214Z" fill="#F5F7FF" stroke="#0F172A" stroke-width="3.75672"/>
<path d="M20.3433 21.7894C22.6211 22.0053 24.4492 22.8093 25.8401 24.0602C27.2144 25.2962 28.0525 26.8691 28.5405 28.4615C29.5002 31.5932 29.1958 35.0838 28.661 37.3357L28.2837 38.9263L9.8176 37.1767L9.69406 35.6024C9.5126 33.2893 9.74528 29.7872 11.1768 26.8693C11.9055 25.384 12.9827 23.9763 14.5456 23.0048C16.1279 22.0213 18.0662 21.5737 20.3433 21.7894Z" fill="#EA580C" stroke="#0F172A" stroke-width="3.75672"/>
<path d="M54.4459 21.8826C56.7093 21.5478 58.6766 21.8918 60.3262 22.7741C61.9559 23.6459 63.1457 24.9729 64.0001 26.4026C65.6802 29.2142 66.2188 32.6764 66.2376 34.9909L66.2514 36.6256L47.9021 39.3393L47.406 37.8401C46.677 35.6374 46.0661 32.1812 46.7589 29.0057C47.1116 27.3892 47.8212 25.765 49.1066 24.4482C50.4081 23.115 52.1833 22.2173 54.4459 21.8826Z" fill="#0F766E" stroke="#0F172A" stroke-width="3.75672"/>
<path d="M83.9113 36L79.3993 18.96H82.1593L85.4713 32.424L88.7833 18.96H91.4233L94.7353 32.424L98.0233 18.96H100.831L96.2953 36H93.2713L90.1033 23.568L86.9353 36H83.9113ZM100.928 36V18.96H103.472V26.112L103.16 26.064C103.304 25.344 103.568 24.76 103.952 24.312C104.336 23.848 104.808 23.504 105.368 23.28C105.928 23.056 106.544 22.944 107.216 22.944C108.144 22.944 108.928 23.152 109.568 23.568C110.208 23.968 110.688 24.536 111.008 25.272C111.344 26.008 111.512 26.848 111.512 27.792V36H108.968V28.464C108.968 27.312 108.768 26.464 108.368 25.92C107.984 25.36 107.376 25.08 106.544 25.08C105.616 25.08 104.872 25.376 104.312 25.968C103.752 26.544 103.472 27.392 103.472 28.512V36H100.928ZM118.082 36.288C116.834 36.288 115.754 36.016 114.842 35.472C113.946 34.928 113.25 34.152 112.754 33.144C112.274 32.136 112.034 30.96 112.034 29.616C112.034 28.272 112.274 27.104 112.754 26.112C113.25 25.104 113.946 24.328 114.842 23.784C115.738 23.224 116.794 22.944 118.01 22.944C119.162 22.944 120.178 23.216 121.058 23.76C121.938 24.288 122.618 25.056 123.098 26.064C123.594 27.072 123.842 28.288 123.842 29.712V30.36H114.674C114.738 31.608 115.066 32.544 115.658 33.168C116.266 33.792 117.082 34.104 118.106 34.104C118.858 34.104 119.482 33.928 119.978 33.576C120.474 33.224 120.818 32.752 121.01 32.16L123.65 32.328C123.314 33.512 122.65 34.472 121.658 35.208C120.682 35.928 119.49 36.288 118.082 36.288ZM114.674 28.44H121.154C121.074 27.304 120.746 26.464 120.17 25.92C119.61 25.376 118.89 25.104 118.01 25.104C117.098 25.104 116.346 25.392 115.754 25.968C115.178 26.528 114.818 27.352 114.674 28.44ZM124.42 36V23.232H126.748L126.844 26.616L126.628 26.544C126.804 25.392 127.156 24.552 127.684 24.024C128.228 23.496 128.956 23.232 129.868 23.232H131.092V25.512H129.868C129.228 25.512 128.692 25.616 128.26 25.824C127.828 26.032 127.5 26.352 127.276 26.784C127.068 27.216 126.964 27.776 126.964 28.464V36H124.42ZM136.16 36.288C134.912 36.288 133.832 36.016 132.92 35.472C132.024 34.928 131.328 34.152 130.832 33.144C130.352 32.136 130.112 30.96 130.112 29.616C130.112 28.272 130.352 27.104 130.832 26.112C131.328 25.104 132.024 24.328 132.92 23.784C133.816 23.224 134.872 22.944 136.088 22.944C137.24 22.944 138.256 23.216 139.136 23.76C140.016 24.288 140.696 25.056 141.176 26.064C141.672 27.072 141.92 28.288 141.92 29.712V30.36H132.752C132.816 31.608 133.144 32.544 133.736 33.168C134.344 33.792 135.16 34.104 136.184 34.104C136.936 34.104 137.56 33.928 138.056 33.576C138.552 33.224 138.896 32.752 139.088 32.16L141.728 32.328C141.392 33.512 140.728 34.472 139.736 35.208C138.76 35.928 137.568 36.288 136.16 36.288ZM132.752 28.44H139.232C139.152 27.304 138.824 26.464 138.248 25.92C137.688 25.376 136.968 25.104 136.088 25.104C135.176 25.104 134.424 25.392 133.832 25.968C133.256 26.528 132.896 27.352 132.752 28.44ZM142.109 25.752L143.309 21.984H141.989V18.96H145.085V21.624L143.573 25.752H142.109ZM150.879 36.288C149.679 36.288 148.663 36.104 147.831 35.736C147.015 35.368 146.383 34.864 145.935 34.224C145.487 33.568 145.231 32.816 145.167 31.968L147.783 31.848C147.911 32.552 148.215 33.112 148.695 33.528C149.175 33.944 149.903 34.152 150.879 34.152C151.679 34.152 152.311 34.024 152.775 33.768C153.239 33.512 153.471 33.104 153.471 32.544C153.471 32.24 153.391 31.984 153.231 31.776C153.087 31.552 152.799 31.368 152.367 31.224C151.935 31.064 151.295 30.912 150.447 30.768C149.183 30.528 148.191 30.248 147.471 29.928C146.751 29.608 146.239 29.2 145.935 28.704C145.631 28.208 145.479 27.608 145.479 26.904C145.479 25.736 145.911 24.784 146.775 24.048C147.655 23.312 148.919 22.944 150.567 22.944C151.671 22.944 152.599 23.136 153.351 23.52C154.103 23.888 154.687 24.392 155.103 25.032C155.535 25.656 155.807 26.36 155.919 27.144L153.303 27.288C153.223 26.84 153.063 26.456 152.823 26.136C152.599 25.8 152.295 25.544 151.911 25.368C151.527 25.176 151.071 25.08 150.543 25.08C149.727 25.08 149.119 25.24 148.719 25.56C148.319 25.88 148.119 26.296 148.119 26.808C148.119 27.192 148.207 27.504 148.383 27.744C148.575 27.984 148.879 28.184 149.295 28.344C149.711 28.488 150.263 28.616 150.951 28.728C152.279 28.952 153.319 29.232 154.071 29.568C154.823 29.888 155.351 30.288 155.655 30.768C155.959 31.248 156.111 31.832 156.111 32.52C156.111 33.32 155.887 34 155.439 34.56C154.991 35.12 154.375 35.552 153.591 35.856C152.807 36.144 151.903 36.288 150.879 36.288ZM156.95 36V18.96H160.502L165.566 32.952L170.63 18.96H174.182V36H171.59V23.52L167.006 35.976H164.126L159.542 23.52V36H156.95ZM176.523 39.6V37.512H178.083C178.515 37.512 178.835 37.448 179.043 37.32C179.251 37.192 179.411 36.976 179.523 36.672L179.931 35.616H179.139L174.531 23.232H177.219L180.723 33.264L184.059 23.232H186.771L181.683 37.488C181.427 38.224 181.043 38.76 180.531 39.096C180.035 39.432 179.339 39.6 178.443 39.6H176.523ZM187.098 36V18.96H192.57C195.242 18.96 197.298 19.704 198.738 21.192C200.178 22.664 200.898 24.768 200.898 27.504C200.898 30.224 200.186 32.32 198.762 33.792C197.354 35.264 195.338 36 192.714 36H187.098ZM189.69 33.624H192.57C194.458 33.624 195.866 33.12 196.794 32.112C197.738 31.088 198.21 29.552 198.21 27.504C198.21 25.424 197.738 23.88 196.794 22.872C195.866 21.848 194.458 21.336 192.57 21.336H189.69V33.624ZM207.293 36.288C206.077 36.288 205.013 36.016 204.101 35.472C203.189 34.928 202.485 34.152 201.989 33.144C201.493 32.136 201.245 30.96 201.245 29.616C201.245 28.256 201.493 27.08 201.989 26.088C202.485 25.096 203.189 24.328 204.101 23.784C205.013 23.224 206.077 22.944 207.293 22.944C208.509 22.944 209.573 23.224 210.485 23.784C211.397 24.328 212.101 25.096 212.597 26.088C213.093 27.08 213.341 28.256 213.341 29.616C213.341 30.96 213.093 32.136 212.597 33.144C212.101 34.152 211.397 34.928 210.485 35.472C209.573 36.016 208.509 36.288 207.293 36.288ZM207.293 34.08C208.381 34.08 209.221 33.688 209.813 32.904C210.405 32.104 210.701 31.008 210.701 29.616C210.701 28.224 210.405 27.136 209.813 26.352C209.221 25.552 208.381 25.152 207.293 25.152C206.221 25.152 205.381 25.552 204.773 26.352C204.181 27.136 203.885 28.224 203.885 29.616C203.885 31.008 204.181 32.104 204.773 32.904C205.381 33.688 206.221 34.08 207.293 34.08ZM213.912 36V23.232H216.24L216.336 26.616L216.12 26.544C216.296 25.392 216.648 24.552 217.176 24.024C217.72 23.496 218.448 23.232 219.36 23.232H220.584V25.512H219.36C218.72 25.512 218.184 25.616 217.752 25.824C217.32 26.032 216.992 26.352 216.768 26.784C216.56 27.216 216.456 27.776 216.456 28.464V36H213.912ZM220.49 36V23.232H222.818L222.89 26.4L222.602 26.304C222.746 25.6 222.994 25 223.346 24.504C223.714 24.008 224.162 23.624 224.69 23.352C225.218 23.08 225.794 22.944 226.418 22.944C227.506 22.944 228.394 23.256 229.082 23.88C229.77 24.488 230.202 25.328 230.378 26.4H229.97C230.114 25.648 230.354 25.024 230.69 24.528C231.042 24.016 231.49 23.624 232.034 23.352C232.578 23.08 233.194 22.944 233.882 22.944C234.778 22.944 235.538 23.136 236.162 23.52C236.802 23.888 237.282 24.432 237.602 25.152C237.938 25.872 238.106 26.752 238.106 27.792V36H235.562V28.416C235.562 27.312 235.362 26.48 234.962 25.92C234.562 25.36 233.954 25.08 233.138 25.08C232.61 25.08 232.146 25.216 231.746 25.488C231.346 25.76 231.034 26.152 230.81 26.664C230.602 27.176 230.498 27.792 230.498 28.512V36H228.074V28.512C228.074 27.424 227.89 26.584 227.522 25.992C227.17 25.384 226.562 25.08 225.698 25.08C225.154 25.08 224.682 25.216 224.282 25.488C223.898 25.76 223.594 26.16 223.37 26.688C223.146 27.2 223.034 27.808 223.034 28.512V36H220.49Z" fill="#0F172A"/>
</svg>
