<svg width="472" height="468" viewBox="0 0 472 468" fill="none" xmlns="http://www.w3.org/2000/svg">
<path d="M454.493 450.131H17.1509V130.919L26.5015 126.145L228.022 23.2402L235.822 19.2578L243.622 23.2402L445.142 126.145L454.493 130.919V450.131Z" fill="none" stroke="currentColor" stroke-width="34.3013"/>
<path d="M253.399 157.348C279.716 162.942 299.641 174.71 313.865 190.819C327.957 206.778 335.588 226.006 339.147 245.304C346.177 283.416 337.85 324.42 328.376 350.523L323.419 364.182L111.057 319.043L111.572 305.014C112.594 277.174 120.221 235.982 140.987 203.663C151.512 187.283 165.818 172.568 184.933 163.542C204.231 154.429 227.089 151.756 253.399 157.348Z" fill="none" stroke="currentColor" stroke-width="33.4"/>
</svg>
