<svg width="472" height="671" viewBox="0 0 472 671" fill="none" xmlns="http://www.w3.org/2000/svg">
<path d="M234.808 652.94C195.358 652.94 169.262 642.143 154.486 624.159C139.861 606.358 139.389 585.201 143.292 571.139L146.789 558.54H321.659L325.671 570.102C330.791 584.86 330.223 606.378 315.438 624.217C300.564 642.161 274.228 652.94 234.808 652.94Z" stroke="black" stroke-width="34.4"/>
<path d="M252.627 65.242L292.563 141.274C371.594 162.998 414.13 226.984 435.122 295.016C456.742 365.085 456.733 442.579 449.678 493.118L447.608 507.94H26.1006L23.6152 493.697C14.5926 441.989 12.6591 362.1 34.0605 290.733C54.8914 221.269 99.01 156.988 182.603 138.679L222.258 65.0818L237.593 36.6199L252.627 65.242Z" stroke="black" stroke-width="34.4"/>
</svg>
