<svg width="615" height="624" viewBox="0 0 615 624" fill="none" xmlns="http://www.w3.org/2000/svg">
<path d="M300.066 17.5674C302.954 16.4214 306.169 16.4104 309.064 17.5372L590.461 127.053C595.187 128.892 598.3 133.443 598.3 138.515V495.369C598.3 502.11 592.874 507.595 586.134 507.668L230.875 511.526C216 511.688 202.135 519.079 193.709 531.339L145.816 601.023C140.02 609.458 127.057 607.537 123.957 597.783L105.341 539.213C99.3109 520.242 81.6945 507.356 61.7881 507.356H29C22.2069 507.356 16.7002 501.849 16.7002 495.056V138.374C16.7002 133.332 19.7768 128.801 24.4629 126.941L300.066 17.5674Z" fill="#F5F7FF" stroke="#0F172A" stroke-width="33.4"/>
</svg>
