<svg width="97" height="50" viewBox="0 0 97 50" fill="none" xmlns="http://www.w3.org/2000/svg">
<path d="M47.7714 47.3129H1.80264V13.7611L2.78603 13.2592L23.9667 2.44276L24.787 2.02381L25.6063 2.44276L46.788 13.2592L47.7714 13.7611V47.3129Z" fill="#F5F7FF" stroke="#0F172A" stroke-width="3.60537"/>
<path d="M94.2252 47.3129H48.2565V13.7611L49.2399 13.2592L70.4205 2.44276L71.2409 2.02381L72.0602 2.44276L93.2418 13.2592L94.2252 13.7611V47.3129Z" fill="#F5F7FF" stroke="#0F172A" stroke-width="3.60537"/>
<path d="M24.9809 18.0209C27.8053 18.2885 30.0377 19.2804 31.7255 20.7984C33.3973 22.302 34.4299 24.226 35.0361 26.2041C36.2329 30.1096 35.8557 34.5007 35.1801 37.3455L34.8178 38.8718L12.0195 36.7118L11.9007 35.2007C11.6713 32.2765 11.971 27.874 13.7545 24.2388C14.6587 22.3957 15.9807 20.6788 17.8771 19.5C19.7921 18.3097 22.1572 17.7534 24.9809 18.0209Z" fill="#EA580C" stroke="#0F172A" stroke-width="3.60537"/>
<path d="M69.1999 18.1373C72.0064 17.7222 74.4112 18.1519 76.4129 19.2226C78.3955 20.2831 79.8579 21.9046 80.9193 23.6806C83.0147 27.1869 83.6977 31.541 83.7215 34.4648L83.7343 36.0335L61.0804 39.3839L60.604 37.9449C59.6825 35.1603 58.9214 30.8137 59.7846 26.8576C60.2222 24.8519 61.0956 22.8688 62.6554 21.271C64.2305 19.6576 66.3942 18.5522 69.1999 18.1373Z" fill="#0F766E" stroke="#0F172A" stroke-width="3.60537"/>
</svg>
