<svg width="100" height="56" viewBox="0 0 100 56" fill="none" xmlns="http://www.w3.org/2000/svg">
<path d="M51.641 51.5687H3.68004V16.3411L5.6898 15.3177L25.9906 4.9798L27.6605 4.12921L29.3304 4.9798L49.6312 15.3177L51.641 16.3411V51.5687Z" fill="#0F172A" stroke="#0F172A" stroke-width="7.35973"/>
<path d="M96.1627 51.5687H48.2017V16.3411L50.2115 15.3177L70.5123 4.9798L72.1822 4.12921L73.8521 4.9798L94.1529 15.3177L96.1627 16.3411V51.5687Z" fill="#0F172A" stroke="#0F172A" stroke-width="7.35973"/>
<path d="M49.9427 49.8694H5.37828V17.3831L6.46031 16.8314L26.7611 6.49347L27.6605 6.03546L28.5599 6.49347L48.8597 16.8314L49.9427 17.3831V49.8694Z" stroke="white" stroke-width="3.96293"/>
<path d="M94.4644 49.8694H49.9V17.3831L50.982 16.8314L71.2828 6.49347L72.1822 6.03546L73.0816 6.49347L93.3814 16.8314L94.4644 17.3831V49.8694Z" stroke="white" stroke-width="3.96293"/>
<path d="M27.8645 21.4183C30.607 21.6774 32.7859 22.6397 34.4372 24.1208C36.0716 25.5868 37.0777 27.4594 37.6666 29.3757C38.8276 33.1539 38.4608 37.3898 37.8083 40.13L37.4214 41.7551L15.2448 39.6597L15.119 38.0518C14.8975 35.236 15.1843 30.9879 16.915 27.4698C17.7938 25.6835 19.0836 24.0105 20.9393 22.8601C22.8145 21.6978 25.1231 21.1593 27.8645 21.4183Z" fill="#0F172A" stroke="white" stroke-width="3.83986"/>
<path d="M70.1972 21.5308C72.9221 21.1289 75.268 21.5442 77.2263 22.5887C79.1647 23.6228 80.5905 25.202 81.6215 26.9225C83.6541 30.3146 84.313 34.515 84.3359 37.3312L84.3495 39.0004L62.3135 42.2505L61.8051 40.7195C60.9153 38.0379 60.1769 33.8448 61.0145 30.0162C61.4398 28.0723 62.2907 26.1406 63.8169 24.5813C65.3593 23.0056 67.4729 21.9326 70.1972 21.5308Z" fill="#0F172A" stroke="white" stroke-width="3.83986"/>
</svg>
