<svg width="496" height="542" viewBox="0 0 496 542" fill="none" xmlns="http://www.w3.org/2000/svg">
<circle cx="174.3" cy="174.3" r="157.15" stroke="currentColor" stroke-width="34.3"/>
<mask id="path-2-outside-1_148_63" maskUnits="userSpaceOnUse" x="241.8" y="266.8" width="254" height="275" fill="black">
<rect fill="white" x="241.8" y="266.8" width="254" height="275"/>
<path d="M337.611 395.127L270.8 292.8L361.171 372.622L461.037 507.3L337.611 395.127Z"/>
</mask>
<path d="M270.8 292.8L293.507 267.092L242.08 311.552L270.8 292.8ZM337.611 395.127L308.891 413.879L311.292 417.556L314.542 420.51L337.611 395.127ZM461.037 507.3L437.968 532.683C451.029 544.554 470.967 544.575 484.053 532.731C497.139 520.888 499.101 501.047 488.589 486.87L461.037 507.3ZM361.171 372.622L388.723 352.192L386.578 349.299L383.878 346.914L361.171 372.622ZM270.8 292.8L242.08 311.552L308.891 413.879L337.611 395.127L366.332 376.375L299.52 274.048L270.8 292.8ZM337.611 395.127L314.542 420.51L437.968 532.683L461.037 507.3L484.106 481.917L360.68 369.744L337.611 395.127ZM461.037 507.3L488.589 486.87L388.723 352.192L361.171 372.622L333.619 393.052L433.485 527.73L461.037 507.3ZM361.171 372.622L383.878 346.914L293.507 267.092L270.8 292.8L248.093 318.508L338.464 398.33L361.171 372.622Z" fill="currentColor" mask="url(#path-2-outside-1_148_63)"/>
<path d="M132.054 79.3C41.0538 110.8 53.2987 242.8 124.299 273.3" stroke="currentColor" stroke-width="34.3" stroke-linecap="round"/>
<circle cx="174.054" cy="67.8" r="15.5" fill="currentColor"/>
</svg>
